<svg width="1246" height="360" viewBox="0 0 1246 360" fill="none" xmlns="http://www.w3.org/2000/svg">
<path d="M132.319 0.313721C151.097 -2.37998 172.706 12.7871 184.551 26.0237C204.178 47.9555 212.156 72.4388 210.686 101.73C216.871 107.012 220.746 110.675 226.107 116.771C236.757 109.693 246.623 104.68 259.315 102.089C276.314 98.544 294.026 101.939 308.509 111.519C319.094 118.594 328.447 129.865 330.999 142.58C318.227 143.376 307.616 145.643 296.019 151.624C284.582 157.523 269.708 169.028 265.237 181.705C263.743 186.593 263.89 192.477 264.189 197.397C265.307 215.803 280.817 229.266 296.545 236.445C299.032 237.58 303.188 239.512 304.501 241.972C304.604 254.675 283.293 263.327 273.26 265.949C279.841 276.671 285.698 288.006 283.952 300.931C281.224 321.128 264.013 334.042 244.196 331.823C237.719 348.808 220.556 355.11 207.805 357.175C195.054 359.24 181.056 360.385 176.018 359.663C170.979 358.941 166.258 358.686 161.088 357.732C139.666 353.774 119.083 345.558 103.48 329.967C74.7497 341.119 47.158 331.433 45.0373 297.92C29.765 299.579 8.12207 295.794 0.145721 280.454C-1.07145 278.113 5.68778 268.539 7.36545 266.226C22.5423 245.306 27.1503 219.632 34.2229 195.347C39.4531 176.974 45.6455 160.688 54.5363 143.56C42.3268 143.821 29.9445 141.609 24.386 129.58C14.6652 108.543 34.0378 94.6484 49.8449 86.9749C48.1052 84.8306 46.3515 82.4024 45.0578 79.9661C40.9996 72.4952 40.1728 63.6897 42.7717 55.594C45.2882 47.7363 50.3858 41.864 57.6926 38.0862C71.8954 30.7419 89.0757 34.7308 103.468 39.427C103.303 38.5286 103.152 37.6279 103.015 36.7249C100.024 16.7216 113.04 2.93353 132.319 0.313721ZM198.771 240.95C193.079 262.573 186.635 287.462 198.661 308.24C201.939 313.902 206.857 317.883 213.273 319.444C216.184 320.166 219.206 320.332 222.179 319.933C247.669 315.524 248.555 292.344 240.425 272.186C238.811 268.186 237.219 264.861 234.931 261.194C219.171 254.813 212.279 250.892 198.771 240.95ZM249.871 265.717C255.948 282.063 260.914 301.819 251.409 317.883C257.803 318.092 261.139 317.594 266.719 314.109C284.166 301.487 272.075 279.902 262.624 266.792C257.98 266.36 254.381 265.999 249.779 265.182C249.809 265.36 249.84 265.539 249.871 265.717ZM182.613 200.169C185.474 205.87 188.825 212.501 192.966 217.351C213.653 241.577 254.661 263.11 285.97 248.865L290.736 246.434C266.733 243.22 247.142 236.698 225.368 225.828C213.16 219.734 200.135 214.496 189.539 205.659C188.146 204.501 183.857 200.749 182.613 200.169ZM227.294 205.807C224.635 205.716 221.974 205.745 219.318 205.895C216.524 206.051 213.039 206.146 210.352 206.642C228.53 215.163 238.943 221.604 258.714 228.51C261.147 229.208 263.594 229.943 266.054 230.531C254.095 217.432 246.258 206.58 227.294 205.807ZM316.226 132.318C294.616 106.597 258.075 111.663 234.277 131.129C228.432 135.909 222.043 144.014 217.738 150.113C207.963 163.851 203.132 181.237 189.048 191.254C198.55 189.718 209.278 187.894 217.87 183.428C251.839 165.773 272.151 137.678 312.236 132.547L316.226 132.318ZM152.312 126.256C152.01 126.276 151.709 126.297 151.407 126.318C147.239 126.714 144.571 127.279 140.735 128.897C129.608 133.592 121.45 144.704 122.544 157.058C122.828 160.126 124.615 163.147 128.002 163.198C128.76 163.21 130.146 162.533 130.388 161.853C133.991 151.715 139.734 142.233 152.069 140.441C166.235 140.228 173.328 148.4 178.079 160.823C186.399 152.183 182.454 142.01 174.765 134.747C168.726 129.013 160.633 125.953 152.312 126.256ZM159.003 23.1731C147.555 15.6369 127.384 10.2683 118.651 24.5305C111.682 37.0251 126.355 51.586 131.268 62.0295C130.487 62.7197 130.877 62.4194 129.599 62.6174C126.066 61.1165 118.947 59.9729 114.803 58.5745C98.549 53.0892 64.8755 37.5042 55.8557 60.7424C52.8122 76.6604 71.6481 85.3779 83.7737 90.0803C72.3862 94.107 31.291 102.209 35.7893 121.665C38.1851 132.027 55.6789 129.736 63.8947 127.571C66.4367 124.734 68.6872 121.646 71.132 118.705C97.5583 86.9218 140.062 72.1586 179.863 85.802C182.986 86.8722 186.001 88.0955 189.072 89.3499C191.455 90.4524 193.855 91.7196 196.2 92.9192C197.99 66.204 180.924 37.6033 159.003 23.1731Z" fill="#947EFB"/>
<path d="M411.699 219.44V21.4403H495.999C506.999 21.4403 516.999 22.3403 525.999 24.1403C534.999 25.7403 542.899 28.2403 549.699 31.6403C556.699 34.8403 562.599 38.8403 567.399 43.6403C572.199 48.2403 575.799 53.6403 578.199 59.8403C580.599 65.8403 581.799 72.5403 581.799 79.9403C581.799 86.9403 580.699 93.2403 578.499 98.8403C576.299 104.44 572.899 109.34 568.299 113.54C563.899 117.74 558.299 121.14 551.499 123.74C544.699 126.34 536.799 128.24 527.799 129.44V133.94C539.199 135.14 547.999 137.74 554.199 141.74C560.599 145.54 565.499 150.64 568.899 157.04C572.299 163.44 575.299 171.14 577.899 180.14L589.299 219.44H535.599L526.899 183.14C525.099 175.14 522.599 168.94 519.399 164.54C516.399 160.14 512.499 157.14 507.699 155.54C502.899 153.74 496.899 152.84 489.699 152.84H459.999V219.44H411.699ZM459.999 117.14H492.699C504.899 117.14 514.399 114.74 521.199 109.94C527.999 105.14 531.399 97.6403 531.399 87.4403C531.399 77.4403 528.299 70.0403 522.099 65.2403C515.899 60.4403 506.499 58.0403 493.899 58.0403H459.999V117.14ZM688.164 223.64C672.164 223.64 657.964 220.54 645.564 214.34C633.364 208.14 623.764 198.84 616.764 186.44C609.764 174.04 606.264 158.54 606.264 139.94C606.264 121.34 609.764 105.94 616.764 93.7403C623.764 81.3403 633.464 72.1403 645.864 66.1403C658.264 59.9403 672.464 56.8403 688.464 56.8403C704.464 56.8403 718.664 59.9403 731.064 66.1403C743.464 72.3403 753.164 81.6403 760.164 94.0403C767.164 106.24 770.664 121.64 770.664 140.24C770.664 159.24 767.064 174.94 759.864 187.34C752.664 199.74 742.764 208.94 730.164 214.94C717.764 220.74 703.764 223.64 688.164 223.64ZM689.664 188.54C696.864 188.54 702.864 186.94 707.664 183.74C712.464 180.34 716.064 175.24 718.464 168.44C720.864 161.64 722.064 153.24 722.064 143.24C722.064 132.64 720.764 123.74 718.164 116.54C715.564 109.14 711.664 103.54 706.464 99.7403C701.464 95.7403 694.964 93.7403 686.964 93.7403C680.164 93.7403 674.264 95.4403 669.264 98.8403C664.464 102.04 660.864 107.04 658.464 113.84C656.064 120.64 654.864 129.14 654.864 139.34C654.864 155.74 657.864 168.04 663.864 176.24C670.064 184.44 678.664 188.54 689.664 188.54ZM836.155 223.64C827.355 223.64 819.555 221.94 812.755 218.54C805.955 214.94 800.655 209.84 796.855 203.24C793.055 196.44 791.155 188.24 791.155 178.64C791.155 169.64 792.855 162.24 796.255 156.44C799.855 150.44 804.955 145.74 811.555 142.34C818.355 138.74 826.455 135.84 835.855 133.64C845.255 131.24 855.955 129.14 867.955 127.34C873.755 126.34 878.555 125.44 882.355 124.64C886.355 123.64 889.355 122.14 891.355 120.14C893.355 118.14 894.355 115.24 894.355 111.44C894.355 106.44 892.555 102.14 888.955 98.5403C885.355 94.9403 879.555 93.1403 871.555 93.1403C865.955 93.1403 860.855 94.1403 856.255 96.1403C851.855 98.1403 848.055 101.04 844.855 104.84C841.655 108.64 839.255 113.24 837.655 118.64L795.055 106.04C797.655 97.6403 801.255 90.3403 805.855 84.1403C810.655 77.9403 816.355 72.8403 822.955 68.8403C829.555 64.6403 837.055 61.6403 845.455 59.8403C854.055 57.8403 863.155 56.8403 872.755 56.8403C888.755 56.8403 901.755 59.4403 911.755 64.6403C921.955 69.6403 929.455 77.5403 934.255 88.3403C939.255 98.9403 941.755 112.64 941.755 129.44V153.74C941.755 160.94 941.855 168.24 942.055 175.64C942.455 182.84 942.855 190.14 943.255 197.54C943.855 204.74 944.555 212.04 945.355 219.44H902.755C901.955 214.84 901.155 209.34 900.355 202.94C899.555 196.34 898.955 189.64 898.555 182.84H892.855C890.055 190.44 885.955 197.44 880.555 203.84C875.355 210.04 868.955 214.94 861.355 218.54C853.955 221.94 845.555 223.64 836.155 223.64ZM858.055 189.44C861.655 189.44 865.255 188.84 868.855 187.64C872.655 186.24 876.255 184.44 879.655 182.24C883.055 179.84 886.155 176.94 888.955 173.54C891.755 170.14 893.855 166.44 895.255 162.44L894.655 138.74L901.255 140.24C897.455 142.64 893.255 144.54 888.655 145.94C884.055 147.34 879.355 148.44 874.555 149.24C869.955 150.04 865.355 150.94 860.755 151.94C856.355 152.74 852.355 153.84 848.755 155.24C845.355 156.64 842.655 158.54 840.655 160.94C838.655 163.34 837.655 166.64 837.655 170.84C837.655 176.44 839.555 180.94 843.355 184.34C847.155 187.74 852.055 189.44 858.055 189.44ZM1042.17 223.64C1031.57 223.64 1021.97 222.64 1013.37 220.64C1004.77 218.84 997.273 216.14 990.873 212.54C984.473 208.94 979.173 204.64 974.973 199.64C970.973 194.44 968.173 188.74 966.573 182.54L1002.57 166.64C1003.97 170.04 1006.37 173.54 1009.77 177.14C1013.37 180.54 1018.07 183.34 1023.87 185.54C1029.87 187.74 1037.07 188.84 1045.47 188.84C1053.47 188.84 1059.67 187.74 1064.07 185.54C1068.67 183.14 1070.97 179.74 1070.97 175.34C1070.97 172.14 1069.67 169.64 1067.07 167.84C1064.67 165.84 1060.97 164.14 1055.97 162.74C1050.97 161.14 1044.77 159.64 1037.37 158.24C1029.77 156.64 1022.07 154.84 1014.27 152.84C1006.47 150.64 999.173 147.74 992.373 144.14C985.573 140.34 980.073 135.44 975.873 129.44C971.873 123.24 969.873 115.44 969.873 106.04C969.873 96.2403 972.473 87.7403 977.673 80.5403C982.873 73.1403 990.573 67.3403 1000.77 63.1403C1011.17 58.9403 1023.77 56.8403 1038.57 56.8403C1051.77 56.8403 1063.37 58.5403 1073.37 61.9403C1083.37 65.3403 1091.67 70.2403 1098.27 76.6403C1105.07 82.8403 1109.77 90.3403 1112.37 99.1403L1073.67 112.94C1072.67 108.54 1070.57 104.74 1067.37 101.54C1064.37 98.3403 1060.47 95.9403 1055.67 94.3403C1051.07 92.5403 1045.57 91.6403 1039.17 91.6403C1031.37 91.6403 1025.27 92.8403 1020.87 95.2403C1016.67 97.6403 1014.57 100.84 1014.57 104.84C1014.57 108.04 1015.97 110.74 1018.77 112.94C1021.77 114.94 1025.97 116.64 1031.37 118.04C1036.77 119.44 1043.17 120.94 1050.57 122.54C1058.37 124.14 1066.07 126.04 1073.67 128.24C1081.47 130.24 1088.47 133.04 1094.67 136.64C1101.07 140.04 1106.07 144.64 1109.67 150.44C1113.47 156.04 1115.37 163.34 1115.37 172.34C1115.37 182.94 1112.57 192.14 1106.97 199.94C1101.37 207.54 1093.07 213.44 1082.07 217.64C1071.27 221.64 1057.97 223.64 1042.17 223.64ZM1203.82 223.34C1185.22 223.34 1171.52 218.44 1162.72 208.64C1153.92 198.64 1149.52 182.74 1149.52 160.94V98.8403H1127.02L1127.92 61.3403H1144.12C1150.52 61.1403 1155.32 60.1403 1158.52 58.3403C1161.92 56.5403 1164.02 53.1403 1164.82 48.1403L1168.72 25.9403H1196.02V61.0403H1234.12V100.34H1196.02V158.84C1196.02 165.64 1197.62 170.64 1200.82 173.84C1204.22 177.04 1209.32 178.64 1216.12 178.64C1219.92 178.64 1223.52 178.24 1226.92 177.44C1230.32 176.64 1233.12 175.54 1235.32 174.14V218.84C1228.92 220.84 1223.02 222.04 1217.62 222.44C1212.42 223.04 1207.82 223.34 1203.82 223.34Z" fill="#1A1A1A"/>
<path d="M697.104 339.675C693.938 339.675 691.214 339.042 688.934 337.775C686.718 336.509 684.913 334.767 683.519 332.55C682.126 330.334 681.081 327.737 680.384 324.76H678.769L679.054 338.44H670.124V314.12V271.465H680.479V287.14C680.479 288.724 680.384 290.434 680.194 292.27C680.004 294.044 679.751 295.88 679.434 297.78C679.181 299.617 678.896 301.454 678.579 303.29H680.384C681.144 300.44 682.189 297.875 683.519 295.595C684.913 293.252 686.718 291.384 688.934 289.99C691.151 288.597 693.906 287.9 697.199 287.9C701.316 287.9 704.863 289.009 707.839 291.225C710.816 293.379 713.096 296.419 714.679 300.345C716.326 304.209 717.149 308.737 717.149 313.93C717.149 318.997 716.358 323.462 714.774 327.325C713.254 331.189 711.006 334.229 708.029 336.445C705.053 338.599 701.411 339.675 697.104 339.675ZM694.159 330.935C696.693 330.935 698.878 330.239 700.714 328.845C702.551 327.452 703.944 325.489 704.894 322.955C705.908 320.359 706.414 317.35 706.414 313.93C706.414 310.574 705.939 307.597 704.989 305C704.039 302.404 702.646 300.377 700.809 298.92C699.036 297.4 696.851 296.64 694.254 296.64C692.418 296.64 690.739 297.02 689.219 297.78C687.763 298.477 686.464 299.427 685.324 300.63C684.248 301.834 683.329 303.164 682.569 304.62C681.873 306.077 681.334 307.565 680.954 309.085C680.574 310.605 680.384 311.999 680.384 313.265V314.595C680.384 316.305 680.669 318.142 681.239 320.105C681.873 322.005 682.759 323.779 683.899 325.425C685.103 327.072 686.559 328.402 688.269 329.415C689.979 330.429 691.943 330.935 694.159 330.935ZM746.343 355.16C743.81 355.16 741.245 354.875 738.648 354.305C736.115 353.799 733.772 352.975 731.618 351.835C729.465 350.759 727.66 349.334 726.203 347.56L730.383 339.39C732.03 341.544 734.247 343.159 737.033 344.235C739.82 345.375 742.765 345.945 745.868 345.945C749.415 345.945 752.328 345.185 754.608 343.665C756.952 342.209 758.725 339.929 759.928 336.825C761.132 333.722 761.765 329.827 761.828 325.14L762.683 315.64H760.878C760.182 320.137 759.073 323.747 757.553 326.47C756.097 329.194 754.292 331.157 752.138 332.36C749.985 333.564 747.452 334.165 744.538 334.165C740.928 334.165 737.888 333.279 735.418 331.505C733.012 329.669 731.175 326.977 729.908 323.43C728.705 319.82 728.103 315.419 728.103 310.225V289.04H738.363V307.945C738.363 313.962 739.155 318.364 740.738 321.15C742.385 323.937 744.823 325.33 748.053 325.33C749.827 325.33 751.41 324.887 752.803 324C754.197 323.114 755.4 321.815 756.413 320.105C757.49 318.332 758.313 316.147 758.883 313.55C759.517 310.954 759.897 307.945 760.023 304.525V289.04H770.378V325.615C770.378 329.542 770.062 333.089 769.428 336.255C768.795 339.359 767.813 342.082 766.483 344.425C765.217 346.832 763.633 348.827 761.733 350.41C759.833 352.057 757.585 353.26 754.988 354.02C752.455 354.78 749.573 355.16 746.343 355.16ZM808.465 338.44V275.74H818.82V338.44H808.465ZM814.545 338.44V329.7H853.875V338.44H814.545ZM814.545 310.605V302.53H849.315V310.605H814.545ZM814.545 284.385V275.74H853.78V284.385H814.545ZM881.039 339.675C876.859 339.675 873.249 338.599 870.209 336.445C867.169 334.229 864.858 331.189 863.274 327.325C861.691 323.399 860.899 318.87 860.899 313.74C860.899 308.737 861.628 304.304 863.084 300.44C864.604 296.514 866.821 293.442 869.734 291.225C872.711 289.009 876.353 287.9 880.659 287.9C884.079 287.9 886.898 288.597 889.114 289.99C891.331 291.32 893.104 293.157 894.434 295.5C895.828 297.844 896.873 300.44 897.569 303.29H899.469C899.153 301.454 898.836 299.554 898.519 297.59C898.203 295.564 897.949 293.632 897.759 291.795C897.569 289.895 897.474 288.217 897.474 286.76V271.465H907.924V314.12V338.44H898.899L899.279 324.76H897.569C896.809 327.864 895.733 330.524 894.339 332.74C892.946 334.957 891.141 336.667 888.924 337.87C886.771 339.074 884.143 339.675 881.039 339.675ZM883.889 330.935C886.106 330.935 888.069 330.429 889.779 329.415C891.489 328.402 892.914 327.072 894.054 325.425C895.194 323.779 896.049 322.005 896.619 320.105C897.253 318.142 897.569 316.305 897.569 314.595V313.265C897.569 311.999 897.379 310.637 896.999 309.18C896.683 307.66 896.144 306.172 895.384 304.715C894.688 303.195 893.801 301.834 892.724 300.63C891.648 299.427 890.349 298.477 888.829 297.78C887.373 297.02 885.726 296.64 883.889 296.64C881.229 296.64 878.981 297.4 877.144 298.92C875.371 300.377 874.009 302.404 873.059 305C872.109 307.597 871.634 310.574 871.634 313.93C871.634 317.35 872.109 320.359 873.059 322.955C874.073 325.489 875.498 327.452 877.334 328.845C879.171 330.239 881.356 330.935 883.889 330.935ZM938.247 339.675C932.674 339.675 928.462 337.775 925.612 333.975C922.762 330.112 921.337 324.317 921.337 316.59V289.04H931.692V315.45C931.692 320.644 932.484 324.507 934.067 327.04C935.65 329.574 938.152 330.84 941.572 330.84C943.472 330.84 945.15 330.365 946.607 329.415C948.064 328.465 949.33 327.135 950.407 325.425C951.547 323.715 952.434 321.72 953.067 319.44C953.764 317.097 954.239 314.532 954.492 311.745V289.04H964.752V317.92V338.44H956.012L956.487 322.765H954.872C954.049 326.692 952.877 329.922 951.357 332.455C949.9 334.925 948.064 336.762 945.847 337.965C943.694 339.105 941.16 339.675 938.247 339.675ZM1030.28 339.675C1025.65 339.675 1021.5 338.979 1017.83 337.585C1014.16 336.192 1011.05 334.165 1008.52 331.505C1005.99 328.782 1004.06 325.457 1002.73 321.53C1001.4 317.54 1000.73 312.98 1000.73 307.85C1000.73 302.657 1001.4 298.002 1002.73 293.885C1004.12 289.769 1006.08 286.285 1008.62 283.435C1011.15 280.522 1014.19 278.305 1017.74 276.785C1021.28 275.265 1025.24 274.505 1029.61 274.505C1032.97 274.505 1036.07 274.98 1038.92 275.93C1041.77 276.817 1044.24 278.115 1046.33 279.825C1048.42 281.535 1050.04 283.625 1051.18 286.095C1052.38 288.565 1053.01 291.352 1053.08 294.455L1043.29 296.925C1043.35 293.885 1042.72 291.384 1041.39 289.42C1040.12 287.394 1038.41 285.874 1036.26 284.86C1034.11 283.847 1031.8 283.34 1029.33 283.34C1027.05 283.34 1024.83 283.784 1022.68 284.67C1020.52 285.557 1018.59 286.982 1016.88 288.945C1015.23 290.845 1013.9 293.315 1012.89 296.355C1011.94 299.395 1011.47 303.069 1011.47 307.375C1011.47 312.885 1012.26 317.382 1013.84 320.865C1015.49 324.285 1017.74 326.819 1020.59 328.465C1023.5 330.049 1026.82 330.84 1030.56 330.84C1034.3 330.84 1037.27 330.112 1039.49 328.655C1041.71 327.199 1043.32 325.267 1044.34 322.86C1045.41 320.39 1046.01 317.604 1046.14 314.5L1055.36 316.115C1055.29 319.345 1054.79 322.417 1053.84 325.33C1052.89 328.18 1051.4 330.682 1049.37 332.835C1047.41 334.989 1044.84 336.667 1041.68 337.87C1038.51 339.074 1034.71 339.675 1030.28 339.675ZM1077.57 339.675C1074.85 339.675 1072.41 339.169 1070.26 338.155C1068.11 337.079 1066.4 335.495 1065.13 333.405C1063.93 331.315 1063.32 328.719 1063.32 325.615C1063.32 323.145 1063.77 321.024 1064.65 319.25C1065.6 317.414 1067 315.894 1068.83 314.69C1070.73 313.424 1073.14 312.41 1076.05 311.65C1078.97 310.827 1082.42 310.13 1086.41 309.56C1088.63 309.244 1090.43 308.927 1091.82 308.61C1093.28 308.294 1094.33 307.787 1094.96 307.09C1095.66 306.394 1096 305.349 1096 303.955C1096 301.802 1095.24 299.965 1093.72 298.445C1092.27 296.862 1089.89 296.07 1086.6 296.07C1084.76 296.07 1082.93 296.387 1081.09 297.02C1079.32 297.654 1077.76 298.699 1076.43 300.155C1075.17 301.549 1074.31 303.449 1073.87 305.855L1064.56 302.91C1065.13 300.504 1066.05 298.382 1067.31 296.545C1068.58 294.645 1070.16 293.062 1072.06 291.795C1073.96 290.465 1076.15 289.484 1078.62 288.85C1081.15 288.154 1083.91 287.805 1086.88 287.805C1091.25 287.805 1094.86 288.534 1097.71 289.99C1100.56 291.447 1102.69 293.695 1104.08 296.735C1105.54 299.712 1106.26 303.544 1106.26 308.23V318.3C1106.26 320.39 1106.3 322.607 1106.36 324.95C1106.49 327.23 1106.61 329.542 1106.74 331.885C1106.93 334.165 1107.15 336.35 1107.4 338.44H1098C1097.81 336.54 1097.62 334.577 1097.43 332.55C1097.3 330.524 1097.18 328.465 1097.05 326.375H1095.62C1094.74 328.782 1093.47 330.999 1091.82 333.025C1090.24 335.052 1088.25 336.667 1085.84 337.87C1083.5 339.074 1080.74 339.675 1077.57 339.675ZM1081.18 331.695C1082.51 331.695 1083.84 331.474 1085.17 331.03C1086.57 330.587 1087.93 329.922 1089.26 329.035C1090.65 328.085 1091.92 326.882 1093.06 325.425C1094.26 323.969 1095.31 322.227 1096.19 320.2L1096.1 311.27L1098.57 311.745C1097.49 312.695 1096.13 313.424 1094.48 313.93C1092.9 314.437 1091.16 314.849 1089.26 315.165C1087.36 315.419 1085.46 315.735 1083.56 316.115C1081.72 316.432 1080.01 316.907 1078.43 317.54C1076.91 318.11 1075.67 318.934 1074.72 320.01C1073.84 321.087 1073.39 322.575 1073.39 324.475C1073.39 326.819 1074.12 328.624 1075.58 329.89C1077.04 331.094 1078.9 331.695 1081.18 331.695ZM1120.08 338.44V271.465H1130.24V338.44H1120.08ZM1156.16 338.44L1138.87 289.135H1150.37L1162.72 329.985H1164.14L1176.59 289.135H1187.7L1170.41 338.44H1156.16ZM1216.88 339.675C1212.13 339.675 1207.92 338.662 1204.24 336.635C1200.57 334.609 1197.69 331.664 1195.6 327.8C1193.57 323.937 1192.56 319.187 1192.56 313.55C1192.56 307.787 1193.64 303.005 1195.79 299.205C1197.94 295.405 1200.82 292.555 1204.43 290.655C1208.11 288.755 1212.22 287.805 1216.78 287.805C1221.47 287.805 1225.65 288.787 1229.32 290.75C1233 292.714 1235.88 295.627 1237.97 299.49C1240.12 303.354 1241.2 308.167 1241.2 313.93C1241.2 319.63 1240.12 324.412 1237.97 328.275C1235.88 332.075 1233 334.925 1229.32 336.825C1225.65 338.725 1221.5 339.675 1216.88 339.675ZM1217.26 331.505C1220.11 331.505 1222.55 330.84 1224.57 329.51C1226.6 328.18 1228.15 326.217 1229.23 323.62C1230.31 321.024 1230.84 317.92 1230.84 314.31C1230.84 310.574 1230.27 307.375 1229.13 304.715C1227.99 301.992 1226.35 299.902 1224.19 298.445C1222.1 296.989 1219.54 296.26 1216.5 296.26C1213.78 296.26 1211.37 296.925 1209.28 298.255C1207.25 299.522 1205.7 301.454 1204.62 304.05C1203.55 306.584 1203.01 309.687 1203.01 313.36C1203.01 319.124 1204.28 323.589 1206.81 326.755C1209.34 329.922 1212.83 331.505 1217.26 331.505Z" fill="#1A1A1A"/>
</svg>
