<svg width="1246" height="360" viewBox="0 0 1246 360" fill="none" xmlns="http://www.w3.org/2000/svg">
<path d="M132.319 0.313721C151.097 -2.37998 172.706 12.7871 184.551 26.0237C204.178 47.9555 212.156 72.4388 210.686 101.73C216.871 107.012 220.746 110.675 226.107 116.771C236.757 109.693 246.623 104.68 259.315 102.089C276.314 98.544 294.026 101.939 308.509 111.519C319.094 118.594 328.447 129.865 330.999 142.58C318.227 143.376 307.616 145.643 296.019 151.624C284.582 157.523 269.708 169.028 265.237 181.705C263.743 186.593 263.89 192.477 264.189 197.397C265.307 215.803 280.817 229.266 296.545 236.445C299.032 237.58 303.188 239.512 304.501 241.972C304.604 254.675 283.293 263.327 273.26 265.949C279.841 276.671 285.698 288.006 283.952 300.931C281.224 321.128 264.013 334.042 244.196 331.823C237.719 348.808 220.556 355.11 207.805 357.175C195.054 359.24 181.056 360.385 176.018 359.663C170.979 358.941 166.258 358.686 161.088 357.732C139.666 353.774 119.083 345.558 103.48 329.967C74.7497 341.119 47.158 331.433 45.0373 297.92C29.765 299.579 8.12207 295.794 0.145721 280.454C-1.07145 278.113 5.68778 268.539 7.36545 266.226C22.5423 245.306 27.1503 219.632 34.2229 195.347C39.4531 176.974 45.6455 160.688 54.5363 143.56C42.3268 143.821 29.9445 141.61 24.386 129.58C14.6652 108.543 34.0378 94.6484 49.8449 86.9749C48.1052 84.8306 46.3515 82.4024 45.0578 79.9661C40.9996 72.4952 40.1728 63.6897 42.7717 55.594C45.2882 47.7363 50.3858 41.864 57.6926 38.0862C71.8954 30.7419 89.0757 34.7308 103.468 39.427C103.303 38.5286 103.152 37.6279 103.015 36.7249C100.024 16.7216 113.04 2.93353 132.319 0.313721ZM198.771 240.95C193.079 262.573 186.635 287.462 198.661 308.24C201.939 313.902 206.857 317.883 213.273 319.444C216.184 320.166 219.206 320.332 222.179 319.933C247.669 315.524 248.555 292.344 240.425 272.186C238.811 268.186 237.219 264.861 234.931 261.194C219.171 254.813 212.279 250.892 198.771 240.95ZM249.871 265.717C255.948 282.063 260.914 301.819 251.409 317.883C257.803 318.092 261.139 317.594 266.719 314.109C284.166 301.487 272.075 279.902 262.624 266.792C257.98 266.36 254.381 265.999 249.779 265.182C249.809 265.36 249.84 265.539 249.871 265.717ZM182.613 200.169C185.474 205.87 188.825 212.501 192.966 217.351C213.653 241.577 254.661 263.11 285.97 248.865L290.736 246.434C266.733 243.22 247.142 236.698 225.368 225.828C213.16 219.734 200.135 214.496 189.539 205.659C188.146 204.501 183.857 200.749 182.613 200.169ZM227.294 205.807C224.635 205.716 221.974 205.745 219.318 205.895C216.524 206.051 213.039 206.146 210.352 206.642C228.53 215.163 238.943 221.604 258.714 228.51C261.147 229.208 263.594 229.943 266.054 230.531C254.095 217.432 246.258 206.58 227.294 205.807ZM316.226 132.318C294.616 106.597 258.075 111.663 234.277 131.129C228.432 135.909 222.043 144.014 217.738 150.113C207.963 163.851 203.132 181.237 189.048 191.254C198.55 189.718 209.278 187.894 217.87 183.428C251.839 165.773 272.151 137.678 312.236 132.547L316.226 132.318ZM152.312 126.256C152.01 126.276 151.709 126.297 151.407 126.318C147.239 126.714 144.571 127.279 140.735 128.897C129.608 133.592 121.45 144.704 122.544 157.058C122.828 160.126 124.615 163.147 128.002 163.198C128.76 163.21 130.146 162.533 130.388 161.853C133.991 151.715 139.734 142.233 152.069 140.441C166.235 140.228 173.328 148.4 178.079 160.823C186.399 152.183 182.454 142.01 174.765 134.747C168.726 129.013 160.633 125.953 152.312 126.256ZM159.003 23.1731C147.555 15.6369 127.384 10.2683 118.651 24.5305C111.682 37.0251 126.355 51.586 131.268 62.0295C130.487 62.7197 130.877 62.4194 129.599 62.6174C126.066 61.1165 118.947 59.9729 114.803 58.5745C98.549 53.0892 64.8755 37.5042 55.8557 60.7424C52.8122 76.6604 71.6481 85.3779 83.7737 90.0803C72.3862 94.107 31.291 102.209 35.7893 121.665C38.1851 132.027 55.6789 129.736 63.8947 127.571C66.4367 124.734 68.6872 121.646 71.132 118.705C97.5583 86.9218 140.062 72.1586 179.863 85.802C182.986 86.8722 186.001 88.0955 189.072 89.3499C191.455 90.4524 193.855 91.7196 196.2 92.9192C197.99 66.204 180.924 37.6033 159.003 23.1731Z" fill="#947EFB"/>
<path d="M411.699 238.44V40.4403H495.999C506.999 40.4403 516.999 41.3403 525.999 43.1403C534.999 44.7403 542.899 47.2403 549.699 50.6403C556.699 53.8403 562.599 57.8403 567.399 62.6403C572.199 67.2403 575.799 72.6403 578.199 78.8403C580.599 84.8403 581.799 91.5403 581.799 98.9403C581.799 105.94 580.699 112.24 578.499 117.84C576.299 123.44 572.899 128.34 568.299 132.54C563.899 136.74 558.299 140.14 551.499 142.74C544.699 145.34 536.799 147.24 527.799 148.44V152.94C539.199 154.14 547.999 156.74 554.199 160.74C560.599 164.54 565.499 169.64 568.899 176.04C572.299 182.44 575.299 190.14 577.899 199.14L589.299 238.44H535.599L526.899 202.14C525.099 194.14 522.599 187.94 519.399 183.54C516.399 179.14 512.499 176.14 507.699 174.54C502.899 172.74 496.899 171.84 489.699 171.84H459.999V238.44H411.699ZM459.999 136.14H492.699C504.899 136.14 514.399 133.74 521.199 128.94C527.999 124.14 531.399 116.64 531.399 106.44C531.399 96.4403 528.299 89.0403 522.099 84.2403C515.899 79.4403 506.499 77.0403 493.899 77.0403H459.999V136.14ZM688.164 242.64C672.164 242.64 657.964 239.54 645.564 233.34C633.364 227.14 623.764 217.84 616.764 205.44C609.764 193.04 606.264 177.54 606.264 158.94C606.264 140.34 609.764 124.94 616.764 112.74C623.764 100.34 633.464 91.1403 645.864 85.1403C658.264 78.9403 672.464 75.8403 688.464 75.8403C704.464 75.8403 718.664 78.9403 731.064 85.1403C743.464 91.3403 753.164 100.64 760.164 113.04C767.164 125.24 770.664 140.64 770.664 159.24C770.664 178.24 767.064 193.94 759.864 206.34C752.664 218.74 742.764 227.94 730.164 233.94C717.764 239.74 703.764 242.64 688.164 242.64ZM689.664 207.54C696.864 207.54 702.864 205.94 707.664 202.74C712.464 199.34 716.064 194.24 718.464 187.44C720.864 180.64 722.064 172.24 722.064 162.24C722.064 151.64 720.764 142.74 718.164 135.54C715.564 128.14 711.664 122.54 706.464 118.74C701.464 114.74 694.964 112.74 686.964 112.74C680.164 112.74 674.264 114.44 669.264 117.84C664.464 121.04 660.864 126.04 658.464 132.84C656.064 139.64 654.864 148.14 654.864 158.34C654.864 174.74 657.864 187.04 663.864 195.24C670.064 203.44 678.664 207.54 689.664 207.54ZM836.155 242.64C827.355 242.64 819.555 240.94 812.755 237.54C805.955 233.94 800.655 228.84 796.855 222.24C793.055 215.44 791.155 207.24 791.155 197.64C791.155 188.64 792.855 181.24 796.255 175.44C799.855 169.44 804.955 164.74 811.555 161.34C818.355 157.74 826.455 154.84 835.855 152.64C845.255 150.24 855.955 148.14 867.955 146.34C873.755 145.34 878.555 144.44 882.355 143.64C886.355 142.64 889.355 141.14 891.355 139.14C893.355 137.14 894.355 134.24 894.355 130.44C894.355 125.44 892.555 121.14 888.955 117.54C885.355 113.94 879.555 112.14 871.555 112.14C865.955 112.14 860.855 113.14 856.255 115.14C851.855 117.14 848.055 120.04 844.855 123.84C841.655 127.64 839.255 132.24 837.655 137.64L795.055 125.04C797.655 116.64 801.255 109.34 805.855 103.14C810.655 96.9403 816.355 91.8403 822.955 87.8403C829.555 83.6403 837.055 80.6403 845.455 78.8403C854.055 76.8403 863.155 75.8403 872.755 75.8403C888.755 75.8403 901.755 78.4403 911.755 83.6403C921.955 88.6403 929.455 96.5403 934.255 107.34C939.255 117.94 941.755 131.64 941.755 148.44V172.74C941.755 179.94 941.855 187.24 942.055 194.64C942.455 201.84 942.855 209.14 943.255 216.54C943.855 223.74 944.555 231.04 945.355 238.44H902.755C901.955 233.84 901.155 228.34 900.355 221.94C899.555 215.34 898.955 208.64 898.555 201.84H892.855C890.055 209.44 885.955 216.44 880.555 222.84C875.355 229.04 868.955 233.94 861.355 237.54C853.955 240.94 845.555 242.64 836.155 242.64ZM858.055 208.44C861.655 208.44 865.255 207.84 868.855 206.64C872.655 205.24 876.255 203.44 879.655 201.24C883.055 198.84 886.155 195.94 888.955 192.54C891.755 189.14 893.855 185.44 895.255 181.44L894.655 157.74L901.255 159.24C897.455 161.64 893.255 163.54 888.655 164.94C884.055 166.34 879.355 167.44 874.555 168.24C869.955 169.04 865.355 169.94 860.755 170.94C856.355 171.74 852.355 172.84 848.755 174.24C845.355 175.64 842.655 177.54 840.655 179.94C838.655 182.34 837.655 185.64 837.655 189.84C837.655 195.44 839.555 199.94 843.355 203.34C847.155 206.74 852.055 208.44 858.055 208.44ZM1042.17 242.64C1031.57 242.64 1021.97 241.64 1013.37 239.64C1004.77 237.84 997.273 235.14 990.873 231.54C984.473 227.94 979.173 223.64 974.973 218.64C970.973 213.44 968.173 207.74 966.573 201.54L1002.57 185.64C1003.97 189.04 1006.37 192.54 1009.77 196.14C1013.37 199.54 1018.07 202.34 1023.87 204.54C1029.87 206.74 1037.07 207.84 1045.47 207.84C1053.47 207.84 1059.67 206.74 1064.07 204.54C1068.67 202.14 1070.97 198.74 1070.97 194.34C1070.97 191.14 1069.67 188.64 1067.07 186.84C1064.67 184.84 1060.97 183.14 1055.97 181.74C1050.97 180.14 1044.77 178.64 1037.37 177.24C1029.77 175.64 1022.07 173.84 1014.27 171.84C1006.47 169.64 999.173 166.74 992.373 163.14C985.573 159.34 980.073 154.44 975.873 148.44C971.873 142.24 969.873 134.44 969.873 125.04C969.873 115.24 972.473 106.74 977.673 99.5403C982.873 92.1403 990.573 86.3403 1000.77 82.1403C1011.17 77.9403 1023.77 75.8403 1038.57 75.8403C1051.77 75.8403 1063.37 77.5403 1073.37 80.9403C1083.37 84.3403 1091.67 89.2403 1098.27 95.6403C1105.07 101.84 1109.77 109.34 1112.37 118.14L1073.67 131.94C1072.67 127.54 1070.57 123.74 1067.37 120.54C1064.37 117.34 1060.47 114.94 1055.67 113.34C1051.07 111.54 1045.57 110.64 1039.17 110.64C1031.37 110.64 1025.27 111.84 1020.87 114.24C1016.67 116.64 1014.57 119.84 1014.57 123.84C1014.57 127.04 1015.97 129.74 1018.77 131.94C1021.77 133.94 1025.97 135.64 1031.37 137.04C1036.77 138.44 1043.17 139.94 1050.57 141.54C1058.37 143.14 1066.07 145.04 1073.67 147.24C1081.47 149.24 1088.47 152.04 1094.67 155.64C1101.07 159.04 1106.07 163.64 1109.67 169.44C1113.47 175.04 1115.37 182.34 1115.37 191.34C1115.37 201.94 1112.57 211.14 1106.97 218.94C1101.37 226.54 1093.07 232.44 1082.07 236.64C1071.27 240.64 1057.97 242.64 1042.17 242.64ZM1203.82 242.34C1185.22 242.34 1171.52 237.44 1162.72 227.64C1153.92 217.64 1149.52 201.74 1149.52 179.94V117.84H1127.02L1127.92 80.3403H1144.12C1150.52 80.1403 1155.32 79.1403 1158.52 77.3403C1161.92 75.5403 1164.02 72.1403 1164.82 67.1403L1168.72 44.9403H1196.02V80.0403H1234.12V119.34H1196.02V177.84C1196.02 184.64 1197.62 189.64 1200.82 192.84C1204.22 196.04 1209.32 197.64 1216.12 197.64C1219.92 197.64 1223.52 197.24 1226.92 196.44C1230.32 195.64 1233.12 194.54 1235.32 193.14V237.84C1228.92 239.84 1223.02 241.04 1217.62 241.44C1212.42 242.04 1207.82 242.34 1203.82 242.34Z" fill="#1A1A1A"/>
<path d="M783.992 319.44V264.895H791.955V285.163H792.435C792.896 284.311 793.562 283.325 794.432 282.207C795.302 281.088 796.51 280.111 798.055 279.277C799.599 278.425 801.641 277.999 804.18 277.999C807.483 277.999 810.43 278.833 813.023 280.502C815.615 282.171 817.648 284.577 819.122 287.72C820.613 290.863 821.359 294.644 821.359 299.066C821.359 303.487 820.622 307.278 819.148 310.438C817.675 313.581 815.65 316.005 813.076 317.709C810.501 319.396 807.563 320.239 804.26 320.239C801.774 320.239 799.741 319.822 798.161 318.988C796.599 318.153 795.373 317.176 794.486 316.058C793.598 314.939 792.914 313.945 792.435 313.075H791.769V319.44H783.992ZM791.796 298.986C791.796 301.862 792.213 304.383 793.047 306.55C793.882 308.716 795.089 310.412 796.67 311.637C798.25 312.844 800.185 313.448 802.476 313.448C804.855 313.448 806.844 312.817 808.442 311.557C810.04 310.278 811.247 308.547 812.064 306.363C812.898 304.179 813.316 301.72 813.316 298.986C813.316 296.287 812.907 293.863 812.09 291.715C811.291 289.566 810.084 287.871 808.468 286.628C806.87 285.385 804.873 284.763 802.476 284.763C800.167 284.763 798.214 285.358 796.616 286.548C795.036 287.738 793.838 289.398 793.021 291.528C792.204 293.659 791.796 296.145 791.796 298.986ZM833.943 334.781C832.754 334.781 831.67 334.684 830.694 334.488C829.717 334.311 828.989 334.115 828.51 333.902L830.428 327.377C831.884 327.768 833.18 327.936 834.316 327.883C835.452 327.83 836.456 327.404 837.326 326.605C838.213 325.806 838.995 324.501 839.669 322.69L840.655 319.973L825.687 278.531H834.21L844.57 310.278H844.996L855.357 278.531H863.906L847.047 324.9C846.266 327.031 845.271 328.833 844.064 330.307C842.857 331.798 841.418 332.917 839.749 333.663C838.08 334.408 836.145 334.781 833.943 334.781ZM891.878 319.44V264.895H926.075V271.979H900.108V288.599H924.291V295.657H900.108V312.356H926.395V319.44H891.878ZM951.743 320.239C948.441 320.239 945.493 319.396 942.901 317.709C940.326 316.005 938.302 313.581 936.828 310.438C935.373 307.278 934.645 303.487 934.645 299.066C934.645 294.644 935.381 290.863 936.855 287.72C938.347 284.577 940.389 282.171 942.981 280.502C945.573 278.833 948.512 277.999 951.797 277.999C954.336 277.999 956.377 278.425 957.922 279.277C959.485 280.111 960.692 281.088 961.544 282.207C962.414 283.325 963.089 284.311 963.569 285.163H964.048V264.895H972.011V319.44H964.234V313.075H963.569C963.089 313.945 962.397 314.939 961.491 316.058C960.603 317.176 959.378 318.153 957.816 318.988C956.253 319.822 954.229 320.239 951.743 320.239ZM953.501 313.448C955.792 313.448 957.727 312.844 959.307 311.637C960.905 310.412 962.113 308.716 962.929 306.55C963.764 304.383 964.181 301.862 964.181 298.986C964.181 296.145 963.773 293.659 962.956 291.528C962.139 289.398 960.941 287.738 959.36 286.548C957.78 285.358 955.827 284.763 953.501 284.763C951.104 284.763 949.107 285.385 947.509 286.628C945.911 287.871 944.703 289.566 943.886 291.715C943.087 293.863 942.688 296.287 942.688 298.986C942.688 301.72 943.096 304.179 943.913 306.363C944.73 308.547 945.937 310.278 947.535 311.557C949.151 312.817 951.14 313.448 953.501 313.448ZM1009.29 302.475V278.531H1017.28V319.44H1009.45V312.356H1009.03C1008.08 314.54 1006.58 316.36 1004.5 317.816C1002.44 319.254 999.872 319.973 996.801 319.973C994.173 319.973 991.847 319.396 989.823 318.242C987.816 317.07 986.236 315.339 985.082 313.048C983.945 310.758 983.377 307.926 983.377 304.552V278.531H991.341V303.593C991.341 306.381 992.113 308.6 993.658 310.252C995.203 311.903 997.209 312.729 999.677 312.729C1001.17 312.729 1002.65 312.356 1004.12 311.61C1005.62 310.864 1006.85 309.737 1007.83 308.228C1008.82 306.718 1009.31 304.801 1009.29 302.475ZM1093.77 282.633H1085.46C1085.14 280.857 1084.55 279.295 1083.68 277.945C1082.81 276.596 1081.74 275.451 1080.48 274.51C1079.22 273.569 1077.81 272.858 1076.25 272.379C1074.7 271.899 1073.06 271.66 1071.32 271.66C1068.18 271.66 1065.36 272.45 1062.88 274.03C1060.41 275.61 1058.46 277.928 1057.02 280.981C1055.6 284.035 1054.89 287.764 1054.89 292.168C1054.89 296.606 1055.6 300.353 1057.02 303.407C1058.46 306.461 1060.42 308.769 1062.9 310.332C1065.39 311.894 1068.19 312.675 1071.29 312.675C1073.02 312.675 1074.65 312.445 1076.2 311.983C1077.76 311.504 1079.17 310.802 1080.43 309.879C1081.69 308.956 1082.76 307.828 1083.63 306.496C1084.51 305.147 1085.13 303.602 1085.46 301.862L1093.77 301.889C1093.33 304.57 1092.47 307.038 1091.19 309.293C1089.93 311.53 1088.3 313.466 1086.32 315.099C1084.34 316.715 1082.09 317.967 1079.55 318.854C1077.01 319.742 1074.24 320.186 1071.24 320.186C1066.52 320.186 1062.31 319.067 1058.62 316.83C1054.92 314.575 1052.01 311.353 1049.88 307.162C1047.77 302.972 1046.71 297.974 1046.71 292.168C1046.71 286.344 1047.78 281.345 1049.91 277.173C1052.04 272.983 1054.95 269.769 1058.64 267.532C1062.34 265.277 1066.54 264.149 1071.24 264.149C1074.14 264.149 1076.83 264.566 1079.34 265.401C1081.86 266.218 1084.12 267.425 1086.13 269.023C1088.14 270.603 1089.8 272.539 1091.11 274.829C1092.42 277.102 1093.31 279.703 1093.77 282.633ZM1114.89 320.346C1112.29 320.346 1109.95 319.866 1107.86 318.908C1105.76 317.931 1104.1 316.519 1102.88 314.673C1101.67 312.826 1101.06 310.562 1101.06 307.881C1101.06 305.573 1101.51 303.673 1102.4 302.182C1103.28 300.69 1104.48 299.51 1105.99 298.64C1107.5 297.769 1109.19 297.113 1111.05 296.669C1112.92 296.225 1114.82 295.887 1116.75 295.657C1119.2 295.372 1121.19 295.142 1122.72 294.964C1124.24 294.769 1125.35 294.458 1126.05 294.032C1126.74 293.606 1127.09 292.913 1127.09 291.955V291.768C1127.09 289.442 1126.43 287.64 1125.11 286.361C1123.82 285.083 1121.88 284.444 1119.31 284.444C1116.63 284.444 1114.51 285.039 1112.97 286.228C1111.44 287.4 1110.39 288.705 1109.8 290.143L1102.32 288.439C1103.2 285.953 1104.5 283.947 1106.2 282.42C1107.93 280.875 1109.91 279.756 1112.14 279.064C1114.38 278.354 1116.73 277.999 1119.2 277.999C1120.84 277.999 1122.57 278.194 1124.4 278.584C1126.24 278.957 1127.96 279.65 1129.56 280.662C1131.18 281.674 1132.5 283.121 1133.53 285.003C1134.56 286.868 1135.08 289.291 1135.08 292.274V319.44H1127.3V313.847H1126.98C1126.46 314.877 1125.69 315.889 1124.66 316.883C1123.63 317.878 1122.31 318.703 1120.69 319.36C1119.08 320.017 1117.14 320.346 1114.89 320.346ZM1116.62 313.954C1118.82 313.954 1120.7 313.519 1122.26 312.649C1123.84 311.779 1125.04 310.642 1125.86 309.24C1126.69 307.819 1127.11 306.301 1127.11 304.685V299.412C1126.83 299.696 1126.28 299.962 1125.46 300.211C1124.66 300.442 1123.75 300.646 1122.72 300.823C1121.69 300.983 1120.68 301.134 1119.71 301.276C1118.73 301.401 1117.91 301.507 1117.26 301.596C1115.71 301.791 1114.3 302.12 1113.02 302.581C1111.76 303.043 1110.75 303.709 1109.99 304.579C1109.24 305.431 1108.87 306.567 1108.87 307.988C1108.87 309.959 1109.6 311.45 1111.05 312.462C1112.51 313.457 1114.36 313.954 1116.62 313.954ZM1153.65 264.895V319.44H1145.68V264.895H1153.65ZM1199.36 278.531L1184.52 319.44H1176L1161.14 278.531H1169.69L1180.05 310.012H1180.47L1190.81 278.531H1199.36ZM1222.68 320.266C1218.84 320.266 1215.5 319.387 1212.64 317.629C1209.78 315.871 1207.56 313.412 1205.98 310.252C1204.4 307.091 1203.61 303.398 1203.61 299.172C1203.61 294.929 1204.4 291.218 1205.98 288.039C1207.56 284.861 1209.78 282.393 1212.64 280.635C1215.5 278.877 1218.84 277.999 1222.68 277.999C1226.51 277.999 1229.86 278.877 1232.72 280.635C1235.58 282.393 1237.8 284.861 1239.38 288.039C1240.96 291.218 1241.75 294.929 1241.75 299.172C1241.75 303.398 1240.96 307.091 1239.38 310.252C1237.8 313.412 1235.58 315.871 1232.72 317.629C1229.86 319.387 1226.51 320.266 1222.68 320.266ZM1222.71 313.581C1225.19 313.581 1227.25 312.924 1228.89 311.61C1230.52 310.296 1231.73 308.547 1232.51 306.363C1233.31 304.179 1233.71 301.773 1233.71 299.146C1233.71 296.535 1233.31 294.138 1232.51 291.955C1231.73 289.753 1230.52 287.986 1228.89 286.654C1227.25 285.323 1225.19 284.657 1222.71 284.657C1220.2 284.657 1218.13 285.323 1216.47 286.654C1214.84 287.986 1213.62 289.753 1212.83 291.955C1212.04 294.138 1211.65 296.535 1211.65 299.146C1211.65 301.773 1212.04 304.179 1212.83 306.363C1213.62 308.547 1214.84 310.296 1216.47 311.61C1218.13 312.924 1220.2 313.581 1222.71 313.581Z" fill="#1A1A1A"/>
</svg>
