<svg xmlns="http://www.w3.org/2000/svg" version="1.1" xmlns:xlink="http://www.w3.org/1999/xlink" width="430" height="468"><svg width="430" height="468" viewBox="0 0 430 468" fill="none" xmlns="http://www.w3.org/2000/svg">
<path d="M171.728 0.407227C196.1 -3.08862 224.144 16.5945 239.517 33.7734C264.99 62.2373 275.343 94.0125 273.435 132.027C281.463 138.882 286.491 143.637 293.449 151.549C307.272 142.363 320.076 135.856 336.547 132.494C358.609 127.893 381.597 132.298 400.394 144.731C414.132 153.913 426.27 168.542 429.583 185.045C413.006 186.078 399.236 189.019 384.184 196.782C369.341 204.438 350.036 219.369 344.233 235.822C342.295 242.165 342.485 249.803 342.873 256.188C344.325 280.076 364.454 297.548 384.867 306.865C388.095 308.338 393.488 310.847 395.192 314.039C395.325 330.526 367.667 341.754 354.646 345.158C363.187 359.073 370.789 373.784 368.523 390.558C364.982 416.771 342.644 433.53 316.924 430.649C308.519 452.693 286.246 460.874 269.697 463.554C253.148 466.234 234.981 467.72 228.442 466.783C221.903 465.846 215.776 465.514 209.066 464.275C181.264 459.139 154.549 448.477 134.298 428.242C97.0116 442.716 61.2028 430.143 58.4508 386.649C38.6298 388.802 10.5411 383.89 0.189087 363.982C-1.39049 360.944 7.38225 348.518 9.5592 345.516C29.256 318.366 35.2367 285.045 44.4156 253.527C51.2036 229.682 59.24 208.545 70.7789 186.315C54.933 186.654 38.8631 183.785 31.649 168.173C19.033 140.87 44.1751 122.837 64.6901 112.878C62.4322 110.095 60.1561 106.944 58.4772 103.782C53.2102 94.0862 52.1384 82.6574 55.5114 72.1504C58.7774 61.9527 65.3919 54.3316 74.8746 49.4287C93.3076 39.8967 115.605 45.0739 134.284 51.1689C134.07 50.0031 133.874 48.834 133.696 47.6621C129.814 21.7011 146.707 3.80723 171.728 0.407227ZM257.971 312.713C250.584 340.775 242.222 373.077 257.83 400.043C262.084 407.392 268.466 412.558 276.793 414.584C280.571 415.521 284.492 415.737 288.351 415.219C321.433 409.497 322.584 379.414 312.032 353.252C309.937 348.061 307.872 343.745 304.902 338.985C284.448 330.704 275.503 325.615 257.971 312.713ZM324.292 344.856C332.179 366.071 338.623 391.711 326.288 412.559C334.586 412.83 338.915 412.184 346.157 407.66C368.801 391.279 353.108 363.266 340.842 346.252C334.815 345.691 330.144 345.222 324.172 344.162C324.212 344.393 324.252 344.625 324.292 344.856ZM237.001 259.785C240.715 267.184 245.063 275.791 250.438 282.085C277.286 313.526 330.508 341.473 371.142 322.984L377.327 319.83C346.176 315.659 320.749 307.194 292.491 293.087C276.647 285.178 259.743 278.379 245.991 266.911C244.183 265.407 238.616 260.537 237.001 259.785ZM294.991 267.102C291.54 266.984 288.086 267.022 284.638 267.216C281.012 267.419 276.489 267.543 273.002 268.187C296.594 279.246 310.109 287.605 335.768 296.568C338.926 297.474 342.101 298.428 345.294 299.19C329.773 282.19 319.603 268.106 294.991 267.102ZM410.41 171.726C382.364 138.344 334.939 144.919 304.052 170.183C296.467 176.387 288.176 186.906 282.589 194.821C269.902 212.651 263.631 235.215 245.352 248.216C257.684 246.222 271.607 243.854 282.759 238.058C326.845 215.145 353.206 178.682 405.23 172.022L410.41 171.726ZM197.675 163.858C197.284 163.884 196.893 163.911 196.503 163.938C191.093 164.453 187.629 165.185 182.65 167.285C168.209 173.378 157.622 187.801 159.042 203.834C159.41 207.816 161.73 211.738 166.126 211.805C167.109 211.82 168.907 210.94 169.221 210.058C173.897 196.901 181.351 184.595 197.36 182.269C215.746 181.993 224.951 192.599 231.117 208.721C241.915 197.508 236.795 184.304 226.816 174.878C218.979 167.436 208.475 163.464 197.675 163.858ZM206.36 30.0742C191.502 20.2932 165.323 13.325 153.988 31.8359C144.944 48.0518 163.988 66.949 170.364 80.5029C169.35 81.3988 169.857 81.0086 168.198 81.2656C163.613 79.3177 154.374 77.8335 148.995 76.0186C127.9 68.8994 84.1967 48.6733 72.4908 78.833C68.5409 99.492 92.9873 110.806 108.724 116.909C93.9452 122.135 40.6099 132.649 46.4479 157.9C49.5571 171.348 72.2615 168.374 82.9244 165.564C86.2234 161.882 89.144 157.876 92.317 154.059C126.614 112.809 181.777 93.6495 233.433 111.356C237.485 112.745 241.398 114.332 245.383 115.96C248.477 117.391 251.592 119.036 254.636 120.593C256.959 85.9208 234.81 48.8022 206.36 30.0742Z" fill="#947EFB"></path>
</svg><style>@media (prefers-color-scheme: light) { :root { filter: none; } }
@media (prefers-color-scheme: dark) { :root { filter: none; } }
</style></svg>